:version 1.10
:name ASF
:units
  mass 1
  length 1
  angle deg
:documentation
  ASF file generated by Kaydara
:root
  axis xyz
  order  tx ty tz rx ry rz
  position 0 0 0
  orientation 0 0 0
:bonedata
  begin
    id 1
    name lfemurDummy
    direction 0.61522 -0.761478 0.204097
    length 5.68318
    axis 0 -0 0 xyz
  end
  begin
    id 2
    name lfemur
    direction 0.34202 -0.939693 -5.84747e-008
    length 16.9147
    axis 0 -0 20 xyz
    dof rx ry rz
    limits( -inf , inf )
( -inf , inf )
( -inf , inf )

  end
  begin
    id 3
    name ltibia
    direction 0.34202 -0.939693 1.20839e-009
    length 18.0532
    axis 0 -0 20 xyz
    dof rz ry rx
    limits( -inf , inf )
( -inf , inf )
( -inf , inf )

  end
  begin
    id 4
    name lfoot
    direction 0.0841971 -0.23133 0.969225
    length 5.23822
    axis -90 7.62852e-016 20 xyz
    dof ry rx rz
    limits( -inf , inf )
( -inf , inf )
( -inf , inf )

  end
  begin
    id 5
    name ltoes
    direction 0 0 0
    length 0
    axis 0 0 0 xyz
    dof rz ry rx
    limits( -inf , inf )
( -inf , inf )
( -inf , inf )

  end
  begin
    id 6
    name rfemurDummy
    direction -0.625247 -0.75382 0.202044
    length 5.74091
    axis 0 -0 0 xyz
  end
  begin
    id 7
    name rfemur
    direction -0.34202 -0.939693 -1.47013e-008
    length 16.4922
    axis 0 -0 -20 xyz
    dof rx ry rz
    limits( -inf , inf )
( -inf , inf )
( -inf , inf )

  end
  begin
    id 8
    name rtibia
    direction -0.34202 -0.939693 -7.74345e-010
    length 18.2421
    axis 0 -0 -20 xyz
    dof rz ry rx
    limits( -inf , inf )
( -inf , inf )
( -inf , inf )

  end
  begin
    id 9
    name rfoot
    direction -0.124331 -0.341598 0.931586
    length 5.45787
    axis -90 -7.62852e-016 -20 xyz
    dof ry rx rz
    limits( -inf , inf )
( -inf , inf )
( -inf , inf )

  end
  begin
    id 10
    name rtoes
    direction 0 0 0
    length 0
    axis 0 0 0 xyz
    dof rz ry rx
    limits( -inf , inf )
( -inf , inf )
( -inf , inf )

  end
  begin
    id 11
    name lowerbackDummy
    direction 0 0 0
    length 0
    axis 0 -0 0 xyz
  end
  begin
    id 12
    name lowerback
    direction -0.0218484 0.994884 -0.0986304
    length 4.45607
    axis 0 -0 0 xyz
    dof rx ry rz
    limits( -inf , inf )
( -inf , inf )
( -inf , inf )

  end
  begin
    id 13
    name upperback
    direction -0.00973057 0.999717 -0.0217111
    length 4.47449
    axis 0 -0 0 xyz
    dof rx ry rz
    limits( -inf , inf )
( -inf , inf )
( -inf , inf )

  end
  begin
    id 14
    name thorax
    direction -0.000928171 0.999699 0.0245198
    length 4.50973
    axis 0 -0 0 xyz
    dof rx ry rz
    limits( -inf , inf )
( -inf , inf )
( -inf , inf )

  end
  begin
    id 15
    name rclavicle
    direction -0.9009 0.425937 -0.0834055
    length 7.28587
    axis 0 -0 0 xyz
    dof rx ry rz
    limits( -inf , inf )
( -inf , inf )
( -inf , inf )

  end
  begin
    id 16
    name rhumerus
    direction -1 -2.23604e-007 -1.42637e-007
    length 13.5704
    axis 180 30 90 xyz
    dof rx ry rz
    limits( -inf , inf )
( -inf , inf )
( -inf , inf )

  end
  begin
    id 17
    name rradius
    direction -1 5.68281e-008 -4.4952e-007
    length 8.06782
    axis 180 30 90 xyz
    dof rz ry rx
    limits( -inf , inf )
( -inf , inf )
( -inf , inf )

  end
  begin
    id 18
    name rwrist
    direction -1 1.51393e-007 1.38143e-007
    length 4.03391
    axis -90 -90 0 xyz
    dof rz rx ry
    limits( -inf , inf )
( -inf , inf )
( -inf , inf )

  end
  begin
    id 19
    name rthumb
    direction 0 0 0
    length 0
    axis 0 0 0 xyz
    dof ry rx rz
    limits( -inf , inf )
( -inf , inf )
( -inf , inf )

  end
  begin
    id 20
    name rhand
    direction -1 -3.34077e-007 -5.59631e-007
    length 1.29744
    axis -90 -90 0 xyz
    dof ry rx rz
    limits( -inf , inf )
( -inf , inf )
( -inf , inf )

  end
  begin
    id 21
    name rfingers
    direction 0 0 0
    length 0
    axis 0 0 0 xyz
    dof rz ry rx
    limits( -inf , inf )
( -inf , inf )
( -inf , inf )

  end
  begin
    id 22
    name lclavicle
    direction 0.940017 0.332249 -0.0773232
    length 8.29589
    axis 0 -0 0 xyz
    dof rx ry rz
    limits( -inf , inf )
( -inf , inf )
( -inf , inf )

  end
  begin
    id 23
    name lhumerus
    direction 1 7.41158e-008 -1.44768e-008
    length 12.0042
    axis 180 -30 -90 xyz
    dof rx ry rz
    limits( -inf , inf )
( -inf , inf )
( -inf , inf )

  end
  begin
    id 24
    name lradius
    direction 1 -1.32972e-007 3.10821e-007
    length 8.1902
    axis 180 -30 -90 xyz
    dof rz ry rx
    limits( -inf , inf )
( -inf , inf )
( -inf , inf )

  end
  begin
    id 25
    name lwrist
    direction 1 3.08957e-007 4.01394e-007
    length 4.09509
    axis -90 90 0 xyz
    dof rz rx ry
    limits( -inf , inf )
( -inf , inf )
( -inf , inf )

  end
  begin
    id 26
    name lthumb
    direction 0 0 0
    length 0
    axis 0 0 0 xyz
    dof ry rx rz
    limits( -inf , inf )
( -inf , inf )
( -inf , inf )

  end
  begin
    id 27
    name lhand
    direction 1 -1.64125e-007 -6.99514e-007
    length 1.37229
    axis -90 90 0 xyz
    dof ry rx rz
    limits( -inf , inf )
( -inf , inf )
( -inf , inf )

  end
  begin
    id 28
    name lfingers
    direction 0 0 0
    length 0
    axis 0 0 0 xyz
    dof rz ry rx
    limits( -inf , inf )
( -inf , inf )
( -inf , inf )

  end
  begin
    id 29
    name lowerneck
    direction -0.030798 0.998024 0.0547665
    length 3.93918
    axis 0 -0 0 xyz
    dof rx ry rz
    limits( -inf , inf )
( -inf , inf )
( -inf , inf )

  end
  begin
    id 30
    name upperneck
    direction 0.0531588 0.996611 -0.0627736
    length 3.95491
    axis 0 -0 0 xyz
    dof rx ry rz
    limits( -inf , inf )
( -inf , inf )
( -inf , inf )

  end
  begin
    id 31
    name head
    direction 0 0 0
    length 0
    axis 0 0 0 xyz
    dof rx ry rz
    limits( -inf , inf )
( -inf , inf )
( -inf , inf )

  end
:hierarchy
  begin
    root lfemurDummy rfemurDummy lowerbackDummy
    lfemurDummy lfemur
    lfemur ltibia
    ltibia lfoot
    lfoot ltoes
    rfemurDummy rfemur
    rfemur rtibia
    rtibia rfoot
    rfoot rtoes
    lowerbackDummy lowerback
    lowerback upperback
    upperback thorax
    thorax rclavicle lclavicle lowerneck
    rclavicle rhumerus
    rhumerus rradius
    rradius rwrist
    rwrist rthumb rhand
    rhand rfingers
    lclavicle lhumerus
    lhumerus lradius
    lradius lwrist
    lwrist lthumb lhand
    lhand lfingers
    lowerneck upperneck
    upperneck head
  end

:SAMPLES-PER-SECOND 30
:FULLY-SPECIFIED
:DEGREES
55
root  0.4404977551 37.54000025 3.19871114 -18.71002197 -81.89959717 17.690979
lowerback  15.51430035 4.160339832 -4.373479843
upperback  5.833749771 4.374670029 -3.130300045
thorax  -2.557219982 2.014830112 -1.585569978
lowerneck  -0.4431450069 6.553719997 -8.012550354
upperneck  11.4527998 8.497799873 4.670790195
head  3.242599964 3.982490063 3.161339998
lclavicle  0 -9.442270133e-015 7.951389973e-016
lhumerus  8.501270294 0.09424190223 69.52700043
lradius  2.736776643e-031 -2.231344357e-031 140.8090057
lwrist  0 1.765562519e-031 24.66629982
lhand  -1.496451383e-031 -27.76390076 20.11240005
lfingers  90 7.125020027 -90
lthumb  89.89689403 5.08795885 91.16245106
rclavicle  0 -9.442270133e-015 7.951389973e-016
rhumerus  14.55589962 14.68900013 -76.99909973
rradius  -2.690444697e-031 2.286996145e-031 139.6340027
rwrist  7.062250077e-031 -0 -13.10919952
rhand  -7.920061211e-032 -33.2840004 9.303460121
rfingers  -90 -7.125020027 -90
rthumb  -92.93752616 -24.25625642 -97.11982154
rfemur  -18.72400093 21.36120033 5.162330151
rtibia  -0 0 70.82679749
rfoot  -0 -15.04109955 -13.10919952
rtoes  5.373923086 19.29304026 -105.8922705
lfemur  -37.62110138 14.07390022 -12.86750031
ltibia  -0 0 68.19300079
lfoot  4.474105081e-032 -9.409500122 1.292350054
ltoes  -4.250644065 -19.5611806 -102.515957
56
root  0.3337288935 37.30822285 3.225244312 -18.54199219 -81.082901 16.98797607
lowerback  15.60340023 4.270259857 -4.05892992
upperback  5.839149952 4.554100037 -3.279819965
thorax  -2.563359976 2.108809948 -1.955119967
lowerneck  -0.2776049972 6.406209946 -7.994959831
upperneck  11.87530041 8.261360168 4.798900127
head  3.371030092 3.856440067 3.209480047
lclavicle  0 -9.442270133e-015 7.951389973e-016
lhumerus  8.613229752 -1.378679991 70.08820343
lradius  2.724937951e-031 -2.245786544e-031 140.5059967
lwrist  -7.062250077e-031 2.648343779e-031 24.00510025
lhand  -1.496451383e-031 -27.76390076 20.11240005
lfingers  90 7.125020027 -90
lthumb  89.89689403 5.08795885 91.16245106
rclavicle  0 -9.442270133e-015 7.951389973e-016
rhumerus  16.3572998 14.76900005 -76.70449829
rradius  -2.655327667e-031 2.327676743e-031 138.7619934
rwrist  7.062250077e-031 1.765562519e-031 -11.07199955
rhand  -7.920061211e-032 -33.2840004 9.303460121
rfingers  -90 -7.125020027 -90
rthumb  -92.93752616 -24.25625642 -97.11982154
rfemur  -18.16340065 20.91600037 5.406060219
rtibia  -0 0 69.77780151
rfoot  -0 -18.27540016 -14.29829979
rtoes  5.373923086 19.29304026 -105.8922705
lfemur  -36.01409912 13.03670025 -12.82279968
ltibia  -0 0 67.38690186
lfoot  4.512182744e-032 -11.98009968 2.047499895
ltoes  -4.250644065 -19.5611806 -102.515957
57
root  0.2226799961 37.00866699 3.238911141 -12.98602295 -80.29959869 11.06097412
lowerback  15.43550014 4.283470154 -2.966820002
upperback  5.778120041 4.768219948 -3.119479895
thorax  -2.466259956 2.234260082 -2.420650005
lowerneck  -0.3030250072 6.208779812 -8.018710136
upperneck  12.43379974 7.969830036 4.973760128
head  3.585809946 3.701960087 3.296580076
lclavicle  0 -9.442270133e-015 7.951389973e-016
lhumerus  8.649040222 -2.793659925 70.67919922
lradius  2.707730185e-031 -2.266504198e-031 140.0690002
lwrist  -1.412450015e-030 -0 23.39179993
lhand  -1.496451383e-031 -27.76390076 20.11240005
lfingers  90 7.125020027 -90
lthumb  89.89689403 5.08795885 91.16245106
rclavicle  0 -9.442270133e-015 7.951389973e-016
rhumerus  18.01549911 14.4073 -76.44080353
rradius  -2.640404724e-031 2.344590994e-031 138.3959961
rwrist  1.412450015e-030 -1.765562519e-031 -10.5692997
rhand  -7.920061211e-032 -33.2840004 9.303460121
rfingers  -90 -7.125020027 -90
rthumb  -92.93752616 -24.25625642 -97.11982154
rfemur  -17.17440033 20.24880028 6.626039982
rtibia  -0 0 69.08969879
rfoot  -0 -23.41620064 -12.59739971
rtoes  5.373923086 19.29304026 -105.8922705
lfemur  -35.11600113 12.09920025 -11.82470036
ltibia  -0 0 66.92389679
lfoot  4.555619078e-032 -14.32849979 1.600250006
ltoes  -4.250644065 -19.5611806 -102.515957
58
root  0.09079755643 36.83089008 3.259133166 -8.732971191 -79.11399841 6.664978027
lowerback  15.05550003 4.115729809 -1.934159994
upperback  5.615399837 4.735340118 -3.151249886
thorax  -2.351510048 2.240750074 -3.000819921
lowerneck  -0.1744119972 6.104219913 -7.90418005
upperneck  12.82820034 7.778820038 5.209690094
head  3.709690094 3.609649897 3.365880013
lclavicle  0 -9.442270133e-015 7.951389973e-016
lhumerus  8.460630417 -3.890170097 70.82240295
lradius  2.690005513e-031 -2.287512706e-031 139.6230011
lwrist  -1.412450015e-030 1.765562519e-031 22.80050087
lhand  -1.496451383e-031 -27.76390076 20.11240005
lfingers  90 7.125020027 -90
lthumb  89.89689403 5.08795885 91.16245106
rclavicle  0 -9.442270133e-015 7.951389973e-016
rhumerus  19.50620079 14.29450035 -76.54499817
rradius  -2.621455018e-031 2.365759418e-031 137.9349976
rwrist  1.412450015e-030 -1.765562519e-031 -9.654009819
rhand  -7.920061211e-032 -33.2840004 9.303460121
rfingers  -90 -7.125020027 -90
rthumb  -92.93752616 -24.25625642 -97.11982154
rfemur  -16.50659943 18.35560036 7.894519806
rtibia  -0 0 69.51670074
rfoot  -0 -23.65920067 -15.42520046
rtoes  5.373923086 19.29304026 -105.8922705
lfemur  -34.46319962 10.94190025 -11.11740017
ltibia  -0 0 66.32189941
lfoot  4.891279647e-032 -16.50329971 0.2081280053
ltoes  -4.250644065 -19.5611806 -102.515957
59
root  -0.04389222095 36.73199931 3.264822171 -8.007019043 -77.58100128 5.866027832
lowerback  14.61289978 4.1240201 -1.994560003
upperback  5.375050068 4.789219856 -2.900569916
thorax  -2.394959927 2.27670002 -2.691289902
lowerneck  0.6833779812 5.945179939 -8.196550369
upperneck  12.9598999 7.483819962 5.257259846
head  3.604379892 3.437750101 3.395410061
lclavicle  0 -9.442270133e-015 7.951389973e-016
lhumerus  7.684289932 -5.176589966 71.92369843
lradius  2.679276108e-031 -2.300070341e-031 139.3549957
lwrist  -7.062250077e-031 -0 22.38100052
lhand  -1.496451383e-031 -27.76390076 20.11240005
lfingers  90 7.125020027 -90
lthumb  89.89689403 5.08795885 91.16245106
rclavicle  0 -9.442270133e-015 7.951389973e-016
rhumerus  20.58849907 14.13580036 -76.14160156
rradius  -2.61512827e-031 2.372751182e-031 137.7819977
rwrist  1.412450015e-030 -1.765562519e-031 -9.687809944
rhand  -7.920061211e-032 -33.2840004 9.303460121
rfingers  -90 -7.125020027 -90
rthumb  -92.93752616 -24.25625642 -97.11982154
rfemur  -15.96090031 15.99610043 8.353230476
rtibia  -0 0 70.24340057
rfoot  -0 -23.11120033 -19.58869934
rtoes  5.373923086 19.29304026 -105.8922705
lfemur  -34.05789948 9.797780037 -11.20680046
ltibia  -0 0 65.74079895
lfoot  4.640834715e-032 -17.99160004 -0.706453979
ltoes  -4.250644065 -19.5611806 -102.515957
60
root  -0.1630151131 36.61222082 3.218066598 -7.34197998 -75.79199982 5.223022461
lowerback  14.27180004 4.15128994 -2.118020058
upperback  5.097939968 4.849559784 -2.706850052
thorax  -2.530410051 2.315089941 -2.417469978
lowerneck  1.544639945 5.699530125 -8.568220139
upperneck  12.9538002 7.046959877 5.584849834
head  3.4511199 3.207050085 3.534240007
lclavicle  0 -9.442270133e-015 7.951389973e-016
lhumerus  6.824369907 -6.761419773 73.30670166
lradius  2.670505294e-031 -2.310247933e-031 139.1369934
lwrist  -7.062250077e-031 -8.827812596e-032 22.07559967
lhand  -1.496451383e-031 -27.76390076 20.11240005
lfingers  90 7.125020027 -90
lthumb  89.89689403 5.08795885 91.16245106
rclavicle  0 -9.442270133e-015 7.951389973e-016
rhumerus  21.35499954 13.95960045 -75.89859772
rradius  -2.612807941e-031 2.375306022e-031 137.7259979
rwrist  0 -1.765562519e-031 -9.36026001
rhand  -7.920061211e-032 -33.2840004 9.303460121
rfingers  -90 -7.125020027 -90
rthumb  -92.93752616 -24.25625642 -97.11982154
rfemur  -15.08370018 13.55130005 8.683659554
rtibia  -0 0 70.69059753
rfoot  -0 -23.27869987 -21.95030022
rtoes  5.373923086 19.29304026 -105.8922705
lfemur  -34.29750061 9.109959602 -11.45699978
ltibia  -0 0 65.44080353
lfoot  5.243911822e-032 -18.74909973 -0.6166560054
ltoes  -4.250644065 -19.5611806 -102.515957
